<?xml version="1.0" encoding="UTF-8" standalone="no"?>
<!-- Created with Inkscape (http://www.inkscape.org/) -->

<svg
   xmlns:dc="http://purl.org/dc/elements/1.1/"
   xmlns:cc="http://creativecommons.org/ns#"
   xmlns:rdf="http://www.w3.org/1999/02/22-rdf-syntax-ns#"
   xmlns:svg="http://www.w3.org/2000/svg"
   xmlns="http://www.w3.org/2000/svg"
   xmlns:sodipodi="http://sodipodi.sourceforge.net/DTD/sodipodi-0.dtd"
   xmlns:inkscape="http://www.inkscape.org/namespaces/inkscape"
   width="740.01227"
   height="485.80469"
   id="svg3832"
   version="1.1"
   inkscape:version="0.48.4 r9939"
   sodipodi:docname="drawing.svg"
   inkscape:export-filename="/home/jon/Projects/angelinasmarket.com/img/pig/pig-large.png"
   inkscape:export-xdpi="299.93536"
   inkscape:export-ydpi="299.93536">
  <defs
     id="defs3834" />
  <sodipodi:namedview
     id="base"
     pagecolor="#ffffff"
     bordercolor="#666666"
     borderopacity="1.0"
     inkscape:pageopacity="0.0"
     inkscape:pageshadow="2"
     inkscape:zoom="1.4"
     inkscape:cx="432.11688"
     inkscape:cy="257.27478"
     inkscape:document-units="px"
     inkscape:current-layer="layer1"
     showgrid="false"
     fit-margin-top="0"
     fit-margin-left="0"
     fit-margin-right="0"
     fit-margin-bottom="0"
     inkscape:window-width="1918"
     inkscape:window-height="1030"
     inkscape:window-x="0"
     inkscape:window-y="0"
     inkscape:window-maximized="1" />
  <metadata
     id="metadata3837">
    <rdf:RDF>
      <cc:Work
         rdf:about="">
        <dc:format>image/svg+xml</dc:format>
        <dc:type
           rdf:resource="http://purl.org/dc/dcmitype/StillImage" />
        <dc:title></dc:title>
      </cc:Work>
    </rdf:RDF>
  </metadata>
  <g
     inkscape:groupmode="layer"
     id="layer3"
     inkscape:label="Layer"
     style="display:inline"
     transform="translate(-7.6293945e-6,104.94753)" />
  <g
     inkscape:label="Layer 1"
     inkscape:groupmode="layer"
     id="layer1"
     transform="translate(-58.000008,-235.91465)"
     style="display:inline">
    <g
       id="g3920"
       style="fill:#000000"
       transform="translate(-25,11.428571)">
      <path
         style="fill:#000000"
         d="m 354.64585,700.76236 c -5.81946,-1.15064 -6.21319,-2.87663 -1.72061,-7.54261 4.07295,-4.23014 4.79238,-6.45175 5.73433,-17.70755 0.78061,-9.32787 -2.26787,-19.18406 -8.50478,-27.49723 -2.56013,-3.41239 -4.93585,-6.22489 -5.27938,-6.25 -1.20449,-0.088 -4.74824,13.52225 -5.2776,20.26929 -0.67537,8.60815 -4.24101,21.96176 -6.69831,25.08571 -2.19521,2.79077 -5.91948,3.55405 -20.72456,4.24743 -8.28933,0.38823 -10.79684,0.17446 -12.71785,-1.08424 -3.08373,-2.02053 -2.25488,-4.14543 2.18907,-5.61206 4.23877,-1.39892 11.67725,-8.95136 14.45837,-14.67987 1.12898,-2.32546 2.51012,-7.31004 3.06919,-11.07685 0.98926,-6.66521 0.91945,-7.0832 -2.60499,-15.59736 -1.99182,-4.81173 -4.29329,-9.77389 -5.11437,-11.02702 -0.82108,-1.25313 -3.31937,-7.63167 -5.55175,-14.17454 -4.71324,-13.81399 -8.00269,-19.98929 -11.15587,-20.94293 -2.88499,-0.87253 -25.74429,-12.20279 -32.26054,-15.99001 -2.7424,-1.59387 -8.58619,-5.49675 -12.98619,-8.67307 -4.4,-3.17631 -9.4962,-6.79099 -11.32489,-8.03262 -1.82868,-1.24162 -4.96763,-3.70377 -6.97544,-5.47144 -2.00781,-1.76767 -5.23661,-3.97106 -7.17511,-4.89644 -1.93851,-0.92537 -4.19956,-2.07949 -5.02456,-2.5647 -5.62536,-3.3085 -7.56726,-4.58095 -9.97256,-6.53468 -4.28155,-3.47774 -19.02744,-7.52884 -19.02744,-5.22737 0,2.03649 -1.71504,0.76665 -3.06953,-2.27273 -1.72565,-3.87222 -11.01291,-10.5317 -15.93047,-11.42304 -4.28718,-0.77708 -8.56782,-2.87033 -12.38353,-6.05559 -1.58594,-1.32391 -4.7329,-3.35058 -6.99324,-4.50372 -5.06898,-2.586 -20.03968,-17.49561 -23.24002,-23.14518 -5.1099,-9.02053 -4.98835,-8.18598 -2.55233,-17.52411 3.39766,-13.02443 6.89875,-16.62003 11.74762,-12.06475 l 2.40008,2.25475 16.26071,-1.27941 c 17.5706,-1.38249 23.73349,-2.91147 34.78271,-8.62945 3.63439,-1.8808 7.3812,-3.41964 8.32624,-3.41964 3.5348,0 11.48351,-5.00649 14.53361,-9.15398 1.71498,-2.33201 3.11815,-4.77823 3.11815,-5.43603 0,-0.65781 0.65017,-1.44551 1.44483,-1.75045 0.79465,-0.30493 1.71743,-2.26558 2.05062,-4.35698 0.82826,-5.1989 4.15686,-12.23191 6.15139,-12.99728 1.08989,-0.41823 2.29285,0.26459 3.58064,2.03244 2.51536,3.45304 3.62213,3.358 8.04213,-0.69056 3.08174,-2.82276 4.41693,-3.35402 8.44542,-3.36038 2.63173,-0.004 9.05997,-0.76418 14.28497,-1.68895 8.07728,-1.42959 11.29712,-1.51879 21.5,-0.5956 6.6,0.59719 14.7,1.92508 18,2.95086 3.3,1.02579 9.6,2.63841 14,3.58359 13.17753,2.83074 18.72902,4.58796 24.16337,7.64852 5.18445,2.91981 9.69457,4.05075 23.03013,5.77494 3.95642,0.51153 8.56454,1.63906 10.24027,2.50561 3.09114,1.59849 16.42343,4.70873 30.06623,7.01403 20.24296,3.42057 26.55674,4.83828 27.29969,6.12992 1.07421,1.86756 6.33455,1.78584 7.06194,-0.1097 0.73287,-1.90984 3.63837,-1.9673 3.63837,-0.072 0,0.98024 1.71713,1.64259 5.47593,2.11222 5.63851,0.70449 8.75234,0.41879 16.52407,-1.51608 2.475,-0.61619 6.15101,-1.08263 8.1689,-1.03653 2.0179,0.0461 3.95696,-0.38228 4.30902,-0.95193 0.77748,-1.25798 5.75313,-1.37395 7.07208,-0.16483 1.57064,1.43985 6.2831,2.20818 6.94773,1.13278 0.34117,-0.55198 -0.30625,-1.00363 -1.43871,-1.00363 -2.5103,0 -2.72852,-1.84979 -0.30902,-2.61947 0.9625,-0.30618 3.39212,-1.42035 5.39916,-2.47592 2.00704,-1.05558 4.36954,-1.6428 5.25,-1.30493 1.03093,0.3956 1.60084,0.0783 1.60084,-0.8912 0,-3.17802 20.31911,-3.80346 34,-1.04655 10.73458,2.16318 31.7648,9.87834 48.5,17.79272 8.93335,4.22475 11.09107,5.8127 20.2289,14.88727 5.62589,5.58694 12.18131,11.95808 14.5676,14.15808 4.53852,4.18422 5.23638,6.2889 7.22286,21.78366 0.42378,3.30551 1.92208,6.70452 4.84887,11 2.32957,3.41899 5.75933,8.91634 7.62168,12.21634 1.86236,3.3 4.17595,7.125 5.14132,8.5 1.60265,2.2827 4.35573,13.84637 3.50022,14.70188 -0.19978,0.19979 -1.38492,-2.36869 -2.63363,-5.70772 -2.5734,-6.8812 -5.43524,-10.99416 -7.64986,-10.99416 -1.17456,0 -1.3551,0.71672 -0.81869,3.25 1.43994,6.80019 4.74345,12.61837 9.98596,17.58736 3.83733,3.63713 5.57541,6.12889 6.0538,8.67891 0.83437,4.44758 -0.15235,5.70988 -1.56301,1.99955 -0.57747,-1.51885 -4.16715,-5.74376 -7.97706,-9.38869 -6.53763,-6.25451 -9.62912,-11.21453 -11.34729,-18.20569 -0.34855,-1.41821 -1.68367,-3.05695 -2.96694,-3.64165 -1.4668,-0.66832 -2.7885,-2.58264 -3.55923,-5.15512 -1.2837,-4.28459 -4.78533,-7.33508 -5.64511,-4.91779 -0.25297,0.71121 -1.38876,6.64461 -2.52399,13.18533 -3.62953,20.91189 -13.18758,39.27698 -28.77003,55.27951 -5.2099,5.35035 -5.87302,6.67244 -6.68502,13.32828 -0.488,4.00008 -0.24288,6.51391 0.89883,9.21788 2.25664,5.34452 1.95949,8.72285 -1.40026,15.91985 -3.35326,7.18308 -13.02474,40.21732 -13.03969,44.53882 -0.0245,7.09165 -8.19865,18.42545 -11.82505,16.39601 -1.01931,-0.57043 -2.52537,-0.43483 -4.13429,0.37225 -1.39199,0.69825 -4.07202,1.5633 -5.95563,1.92232 -4.64246,0.88487 -15.66296,-0.33421 -17.82262,-1.97152 -1.59689,-1.21065 -1.02558,-2.03423 6.42868,-9.2674 9.1884,-8.91586 10.79219,-11.58606 15.14481,-25.2151 4.52517,-14.16932 4.91809,-18.70389 2.10819,-24.33018 -2.46274,-4.93115 -5.93432,-8.81864 -5.93432,-6.64528 0,0.6862 -3.13414,4.46844 -6.96476,8.40499 -3.83061,3.93655 -9.34311,10.60505 -12.25,14.81889 -13.02202,18.87682 -16.59813,23.65933 -21.28524,28.4658 -4.60675,4.72406 -5.55117,5.22481 -12.00787,6.36688 -3.85432,0.68175 -10.67478,1.07303 -15.15657,0.8695 -7.5038,-0.34077 -8.36396,-0.60231 -10.86851,-3.30476 -3.71158,-4.00487 -2.58207,-5.39231 7.37489,-9.05895 10.2793,-3.78535 18.06814,-10.94752 24.13296,-22.19129 2.24845,-4.16848 3.93493,-7.73221 3.74774,-7.9194 -0.18719,-0.18719 -5.19951,0.29747 -11.1385,1.07702 -7.00556,0.91955 -11.44099,1.99914 -12.62844,3.07376 -1.53008,1.38471 -2.39297,1.4707 -5.26069,0.52427 -2.53535,-0.83674 -4.70426,-0.84163 -8.3127,-0.0188 -18.12662,4.13368 -46.31584,-0.20479 -73.66257,-11.33708 -5.37915,-2.18973 -10.04464,-3.71696 -10.36776,-3.39384 -0.32312,0.32312 -0.78635,4.90888 -1.02941,10.19059 -0.47043,10.22286 0.26934,14.01063 4.2084,21.54783 3.58525,6.86019 4.73702,15.55923 2.641,19.94689 -0.91958,1.925 -2.68447,3.94421 -3.92197,4.48713 -1.2375,0.54292 -2.25,1.52478 -2.25,2.1819 0,0.65713 -1.2375,2.06412 -2.75,3.12665 -3.15961,2.21962 -14.49262,3.45574 -20.60416,2.24735 z m 91.85416,-166.04303 c 0.33992,-0.55 0.16803,-1 -0.38197,-1 -0.55,0 -1.27811,0.45 -1.61803,1 -0.33992,0.55 -0.16803,1 0.38197,1 0.55,0 1.27811,-0.45 1.61803,-1 z m 11.5,-21.91821 c 0,-1.05502 0.26055,-2.59719 0.57899,-3.42704 0.43934,-1.14489 0.059,-1.37285 -1.57672,-0.94509 -1.18564,0.31005 -2.57119,1.65651 -3.07899,2.99213 -1.25503,3.30097 -1.25635,3.29821 1.57672,3.29821 1.7978,0 2.5,-0.53879 2.5,-1.91821 z m -20.75807,-5.59657 c -0.53692,-2.80868 -2.24193,-4.42555 -2.24193,-2.12602 0,2.09716 1.07884,4.6408 1.96832,4.6408 0.41488,0 0.53801,-1.13165 0.27361,-2.51478 z m 36.75807,-12.48522 c 0,-2.33183 -1.72776,-2.54144 -5.37056,-0.65153 -3.17638,1.64792 -2.40529,2.65153 2.03723,2.65153 2.66666,0 3.33333,-0.4 3.33333,-2 z m 54.87188,-16.10034 c -2.49532,-1.58069 -3.21201,-0.93298 -1.30244,1.17707 1.21419,1.34167 2.02009,1.65468 2.27687,0.88434 0.2186,-0.65581 -0.21989,-1.58344 -0.97443,-2.06141 z m -57.87188,-22.89966 c 1.11809,-0.72257 0.56026,-0.97327 -2.19098,-0.98469 -2.03004,-0.008 -3.9691,0.43469 -4.30902,0.98469 -0.79713,1.28978 4.50421,1.28978 6.5,0 z m -64,-7.39301 c 0,-1.54388 -2.1063,-2.60699 -5.16512,-2.60699 -2.70611,0 -1.80439,2.27219 1.23926,3.12274 3.66442,1.02401 3.92586,0.98967 3.92586,-0.51575 z m -30.5,-1.60699 c 0.33992,-0.55 -0.0835,-1 -0.94098,-1 -0.85746,0 -1.55902,0.45 -1.55902,1 0,0.55 0.42344,1 0.94098,1 0.51754,0 1.2191,-0.45 1.55902,-1 z m 21.23572,-0.25 c -0.37429,-1.08564 -2.73362,-1.27318 -7.48572,-0.59505 -0.6875,0.0981 -1.25,0.55338 -1.25,1.01172 0,0.45833 2.0625,0.83333 4.58333,0.83333 3.22984,0 4.45607,-0.36913 4.15239,-1.25 z m -37.3443,-3.77024 c 2.18496,-5.46075 2.06011,-6.13119 -0.99875,-5.36347 -1.52076,0.38169 -2.89143,0.19473 -3.28904,-0.44861 -0.76745,-1.24177 -11.18815,-1.85151 -12.95722,-0.75817 -2.13751,1.32106 -1.1599,2.13582 2.60359,2.16989 6.22197,0.0563 11.25,1.38189 11.25,2.96591 0,0.80008 -0.45,1.45469 -1,1.45469 -0.55,0 -1,0.9 -1,2 0,3.73258 3.63453,2.37067 5.39142,-2.02024 z m 153.10858,-0.97976 c 0.33992,-0.55 0.029,-1.00495 -0.69098,-1.01101 -0.71996,-0.006 -3.10902,-0.28966 -5.30902,-0.63023 -2.78529,-0.43119 -3.69632,-0.29937 -3,0.43406 0.55,0.57931 2.35,1.24549 4,1.4804 1.65,0.23491 3.31094,0.49454 3.69098,0.57695 0.38004,0.0824 0.9691,-0.30017 1.30902,-0.85017 z m -40.6875,1.31689 c 0.72187,-0.28887 1.58438,-0.25335 1.91667,0.0789 0.33229,0.3323 -0.25834,0.56864 -1.3125,0.52522 -1.16495,-0.048 -1.4019,-0.28494 -0.60417,-0.60416 z m 6,-1 c 0.72187,-0.28887 1.58438,-0.25335 1.91667,0.0789 0.33229,0.3323 -0.25834,0.56864 -1.3125,0.52522 -1.16495,-0.048 -1.4019,-0.28494 -0.60417,-0.60416 z"
         id="path3934"
         inkscape:connector-curvature="0"
         sodipodi:nodetypes="cssscsssssssssssssssssssssssssscsssssssssscsssssssssssssssscssssssssssssscssssssssssssssssssssssssssssssssssssscssssssssccsssssssssssssssssssssssscssssssssssscssscsssssssssscssscscccccccccc" />
    </g>
    <path
       style="fill:#000000"
       d="m 771.81246,256.82356 c -0.55232,0.98404 -1.84879,2.97015 -2.88104,4.41356 -1.42259,1.98923 -1.85215,3.3359 -1.77488,5.56432 0.17922,5.1689 -6.07195,13.88334 -14.4579,20.15499 -2.13589,1.59741 -4.40103,3.81236 -5.03365,4.92223 -0.63261,1.10986 -3.15376,4.18595 -5.60252,6.83567 -2.44877,2.64977 -4.48533,5.07639 -4.52569,5.39254 -0.0403,0.31607 -1.39653,1.23267 -3.01374,2.03692 -4.65298,2.31378 -16.18523,10.21191 -16.30733,11.16837 -0.31732,2.4858 -6.34136,8.87635 -13.23462,14.03977 -4.12871,3.09265 -9.84727,7.62074 -12.70789,10.06244 -5.14748,4.39365 -15.53365,10.35935 -23.81643,13.67989 -5.31205,2.12957 -6.38321,2.96986 -8.39809,6.58801 -3.14641,5.65006 -12.00101,13.55771 -18.49,16.51258 -2.78855,1.26982 -4.32454,2.65573 -7.2293,6.52294 -2.02864,2.7008 -5.23011,6.01772 -7.11438,7.37094 -3.69447,2.65326 -18.83614,9.33352 -27.37634,12.07802 -6.66219,2.14096 -13.96476,6.7685 -14.25375,9.03238 -0.11409,0.89376 0.41099,2.18627 1.16685,2.87227 0.75585,0.68599 1.34473,1.4788 1.30861,1.76177 -0.095,0.74412 -5.6734,2.89594 -15.72609,6.06621 -4.83344,1.52431 -10.41784,3.37523 -12.40975,4.11316 -3.49101,1.2933 -19.84787,3.51379 -30.43077,4.13108 -5.32581,0.31065 -21.70575,3.04838 -25.56174,4.27238 -1.26306,0.40092 -5.47588,1.309 -9.36181,2.01793 -3.88593,0.70894 -9.79884,2.06652 -13.1398,3.01685 -3.34096,0.95032 -6.5414,1.6952 -7.11209,1.65529 -1.70272,-0.11913 -9.31495,1.40514 -14.84453,2.9724 -2.84405,0.8061 -8.18365,2.09091 -11.86579,2.85516 -3.68213,0.76424 -9.07672,2.15646 -11.98797,3.09382 -5.38631,1.73428 -10.51878,1.93905 -11.9743,0.47774 -0.39509,-0.39666 -2.62744,-1.25757 -4.96079,-1.91312 -3.45264,-0.97002 -5.02298,-1.11215 -8.43518,-0.76349 -2.30601,0.23564 -4.66013,0.6712 -5.23139,0.96792 -0.57126,0.29671 -2.43761,0.78047 -4.14745,1.07502 -4.15612,0.71598 -19.79987,10.68087 -20.77171,13.23135 -1.68493,4.42195 -9.81555,1.2152 -19.64408,-7.74769 -3.11161,-2.83757 -6.45376,-5.67868 -7.427,-6.31358 -0.97324,-0.6349 -3.02228,-2.1524 -4.55342,-3.37222 -1.53115,-1.21982 -4.03945,-3.07154 -5.57401,-4.11492 -1.53456,-1.04339 -4.92603,-3.93621 -7.53662,-6.4285 -8.42372,-8.04201 -13.54543,-11.83316 -26.02277,-19.2624 -6.42434,-3.82517 -6.85273,-4.17546 -9.11032,-7.44947 -0.6683,-0.96919 -2.12728,-2.72506 -3.2422,-3.90195 -2.70079,-2.85094 -10.16439,-11.90272 -12.65843,-15.35201 -2.49158,-3.44588 -7.81872,-13.44145 -7.69212,-14.43312 0.0517,-0.40526 -0.25766,-1.08995 -0.68754,-1.52154 -0.4653,-0.46715 -0.51206,-2.86031 -0.11556,-5.91371 0.52875,-4.07172 1.15715,-5.86009 3.04845,-8.67561 1.45118,-2.16032 2.84031,-5.46141 3.55387,-8.44535 1.19946,-5.01589 2.55827,-7.06552 6.59615,-9.94967 1.14774,-0.81979 2.40778,-1.83555 2.8001,-2.25724 0.94896,-1.02002 7.3681,-3.80563 10.81633,-4.69381 1.51636,-0.39057 4.29243,-1.66177 6.16906,-2.82488 16.18174,-10.02928 21.30038,-12.77009 23.51231,-12.58983 0.69561,0.0564 2.03534,-0.59406 2.97721,-1.4461 1.48863,-1.34665 1.86106,-1.42545 2.84884,-0.60277 0.96509,0.8038 1.86917,0.83341 5.99997,0.19648 2.67501,-0.41245 6.78939,-1.3707 9.14307,-2.12943 2.35369,-0.75874 4.70388,-1.34354 5.22265,-1.29957 0.51877,0.044 1.59796,-0.39902 2.39819,-0.9844 0.80023,-0.58538 2.73539,-1.1356 4.30039,-1.22271 3.11874,-0.1736 8.09967,-0.8102 17.68202,-2.25989 3.44016,-0.52045 9.55289,-1.10445 13.58386,-1.29776 8.8097,-0.42248 11.74361,-0.7415 19.43867,-2.11364 5.23921,-0.93423 28.81595,-4.52471 35.96996,-5.47779 1.50154,-0.20006 6.53711,-0.45458 11.19014,-0.56554 12.54836,-0.29936 16.69003,-0.68506 18.41683,-1.71506 1.5761,-0.94013 3.44315,-0.92115 11.69034,0.11891 6.21358,0.78356 24.2329,1.13792 34.03512,0.66936 5.54077,-0.26494 10.3556,-0.97251 15.23756,-2.23929 14.02525,-3.63932 19.43805,-4.54123 24.28596,-4.04672 3.42693,0.34978 6.09037,0.12082 10.85356,-0.93218 3.47169,-0.76748 9.30196,-1.84162 12.95615,-2.38702 3.65421,-0.54541 8.75907,-1.34285 11.34416,-1.77213 2.58509,-0.42928 7.31908,-1.02424 10.51995,-1.32206 3.20088,-0.29781 8.61387,-0.80605 12.02886,-1.12939 3.415,-0.32334 7.63634,-0.95681 9.38075,-1.40767 3.67286,-0.94935 21.24651,-3.50845 23.04579,-3.35596 0.66854,0.0567 1.57259,-0.12637 2.00901,-0.40676 0.43643,-0.28045 4.14846,-1.11371 8.24896,-1.8517 12.37377,-2.22709 22.00091,-4.38395 30.38917,-6.80843 4.3787,-1.26557 8.78567,-2.42848 9.79326,-2.58417 2.74677,-0.42452 10.83286,-2.9617 16.63196,-5.21864 2.82699,-1.10019 5.3285,-1.98444 5.55888,-1.96492 0.23038,0.0195 2.01378,-0.67274 3.96311,-1.53838 1.94933,-0.86564 3.83355,-1.54937 4.18716,-1.5194 0.35362,0.0299 1.25972,-0.38523 2.01359,-0.92267 1.4064,-1.00261 1.99237,-1.32381 13.74373,-7.53346 6.70317,-3.5421 6.97718,-3.6214 11.54441,-3.34085 5.61827,0.34514 6.8544,0.92728 7.6262,3.59166 0.69445,2.39731 0.55972,3.38643 -0.78835,5.78825 z M 635.71563,367.44541 c -0.52267,-0.0351 -2.25473,0.69446 -3.84903,1.62113 -1.91894,1.11536 -2.21877,1.43388 -0.88705,0.94235 1.10641,-0.40836 2.82197,-1.00859 3.81235,-1.33383 2.00492,-0.65841 2.3616,-1.13321 0.92373,-1.22965 z m -16.32282,-11.27193 c -1.30021,-0.007 -2.37614,0.26786 -2.39096,0.61021 -0.0388,0.89698 3.4794,2.12008 5.08571,1.76803 2.26409,-0.49623 0.14831,-2.36349 -2.69475,-2.37824 z m 0.81164,16.81284 c -1.50829,-0.12783 -7.35042,0.86242 -7.40046,1.25439 -0.18842,1.47605 4.97934,2.03218 6.51074,0.70065 1.21081,-1.05276 1.59424,-1.89533 0.88972,-1.95504 z m -12.46171,-11.65425 c -1.02538,-1.0524 -2.18422,-2.4644 -2.57523,-3.13777 -0.8288,-1.42734 -1.70496,-1.49825 -9.00755,-0.72897 -2.99224,0.31522 -8.3938,0.73398 -12.00348,0.93057 -7.25729,0.39524 -11.15983,0.76241 -16.02268,1.50747 -4.50042,0.68953 -13.60854,-1.37914 -14.06897,-3.19538 -0.23536,-0.92842 -1.01907,-1.28371 -3.24849,-1.47265 -1.61608,-0.13696 -3.18478,0.0113 -3.48602,0.32931 -0.84836,0.8958 -4.26046,0.37576 -4.6168,-0.70365 -0.43166,-1.30754 -5.42115,-1.75006 -5.58136,-0.49501 -0.14757,1.15599 2.48721,2.62942 4.07832,2.2807 0.94714,-0.20758 1.07509,0.0348 0.57763,1.09417 -0.35146,0.74845 -0.70343,1.82841 -0.78214,2.3999 -0.0791,0.5715 -0.84834,1.15781 -1.71029,1.30288 -2.14873,0.36164 -2.11117,1.47837 0.11992,3.56546 2.85783,2.6734 5.00351,3.59368 8.99526,3.85808 1.99957,0.13242 3.80768,0.53119 4.01805,0.88608 0.21036,0.35489 1.44747,0.73551 2.74913,0.84583 1.30166,0.11032 3.44938,0.6274 4.7727,1.14907 3.10299,1.22324 3.84245,0.69353 1.83931,-1.31758 l -1.58585,-1.59216 1.69228,-0.052 c 0.93076,-0.0286 2.37251,0.32316 3.2039,0.78168 0.85195,0.46988 2.54765,0.73826 3.88575,0.61501 1.43217,-0.13191 3.0567,0.15777 4.09446,0.73012 1.32166,0.72892 1.94928,0.79739 2.70835,0.29544 0.5434,-0.35933 2.20087,-0.55055 3.68326,-0.42492 6.53073,0.55349 21.28053,-3.11285 22.62328,-5.62342 0.7409,-1.38529 1.55991,-1.39823 2.672,-0.0422 0.85428,1.04167 3.00188,1.50461 3.97983,0.85792 1.20822,-0.79895 0.77058,-2.82202 -1.00457,-4.64398 z m -9.97984,30.12666 c -1.9762,-0.66947 -6.7007,-0.0658 -6.82035,0.87152 -0.22514,1.76371 2.12672,2.40348 5.13175,1.39599 3.18618,-1.06823 3.59766,-1.62078 1.6886,-2.26751 z m -7.67977,-10.81933 c -0.62774,-0.25986 -1.50523,-0.23184 -1.94996,0.0622 -1.20249,0.79517 -0.3134,2.65988 1.33484,2.79956 1.77769,0.15067 2.27731,-2.17377 0.61512,-2.86181 z m 2.89917,-36.19979 c -0.33914,-0.0288 -1.70423,0.69898 -3.03353,1.61717 -2.76021,1.90656 -1.89156,2.35533 1.34163,0.69311 2.10899,-1.08426 2.93001,-2.20535 1.6919,-2.31028 z m -9.12444,54.80132 c -2.07033,-0.82999 -3.2345,-0.24851 -4.11177,2.05381 -0.65887,1.72913 -0.55121,1.95268 1.00381,2.08447 2.1063,0.17851 4.87823,-1.35135 4.73538,-2.61351 -0.0569,-0.50259 -0.78922,-1.18874 -1.62742,-1.52477 z m 1.5176,-51.7327 c -2.22058,-2.034 -4.08164,-2.72612 -4.22889,-1.57269 -0.0434,0.33994 0.43313,0.66146 1.05893,0.7145 0.6258,0.0531 1.0885,0.48281 1.02821,0.95506 -0.17314,1.35633 2.21361,3.94298 3.25876,3.53169 1.50907,-0.59386 1.23927,-1.47026 -1.11701,-3.62856 z m -10.26312,54.54704 c -1.82159,-0.68436 -4.12944,-1.89037 -5.12857,-2.68001 -0.99911,-0.78964 -2.79458,-1.5186 -3.98992,-1.6199 -1.81254,-0.15361 -2.20609,0.0723 -2.37059,1.36098 -0.22312,1.74778 -1.13485,1.91243 -2.35455,0.4252 -0.45428,-0.55392 -1.31533,-1.04861 -1.91344,-1.09929 -0.59812,-0.0507 -3.0925,-1.12732 -5.54306,-2.3925 -5.70906,-2.94748 -15.73431,-4.5942 -19.88942,-3.26697 -2.95469,0.94378 -3.05928,1.17224 -1.48789,3.25018 0.89334,1.18133 2.3505,1.77453 6.36146,2.58974 2.86148,0.58157 6.56779,1.17539 8.23624,1.3196 7.77777,0.67222 19.35418,2.28211 23.83742,3.31493 4.36364,1.00527 7.4152,1.13215 7.5198,0.31267 0.019,-0.14868 -1.45588,-0.83026 -3.27748,-1.51463 z m 0.66022,-18.46723 c -2.3246,-1.08478 -4.78168,-1.6802 -7.6234,-1.84739 -2.30627,-0.13567 -6.02927,-0.72972 -8.27334,-1.32008 -4.22462,-1.11139 -11.33254,-1.32215 -11.45795,-0.33973 -0.0394,0.30804 -1.20671,0.46386 -2.59419,0.34627 -1.69611,-0.14375 -3.15785,0.23372 -4.4612,1.152 -2.34284,1.65068 -2.04273,3.1301 0.78092,3.84955 1.14067,0.29063 3.08795,0.88575 4.32728,1.32248 2.79838,0.98612 5.53683,1.24866 5.62736,0.53951 0.0375,-0.2941 -0.52417,-1.29975 -1.24823,-2.23478 -2.04773,-2.64436 -1.50043,-2.63616 1.9721,0.0295 4.20775,3.23008 6.13022,3.72039 11.78301,3.00514 2.59556,-0.32842 6.87713,-0.60836 9.5146,-0.62209 3.93606,-0.0205 4.82119,-0.227 4.93932,-1.15234 0.0958,-0.75031 -1.00338,-1.66277 -3.28628,-2.72806 z m -9.35542,25.36471 c -1.36233,0.47966 -1.36929,0.52884 -0.14666,1.03662 0.71649,0.29756 1.8816,0.20788 2.63728,-0.20304 1.2444,-0.67666 1.25624,-0.76038 0.14666,-1.03662 -0.66389,-0.16529 -1.85067,-0.0739 -2.63728,0.20304 z m -27.44319,-5.31065 c -2.32509,-1.93649 -13.1884,-2.43612 -13.4206,-0.61725 -0.10737,0.84115 4.90231,2.33945 8.97667,2.68475 5.16929,0.4381 6.63408,-0.24337 4.44393,-2.0675 z m -4.11528,-39.92725 c -1.77626,-2.02674 -2.41516,-2.38826 -3.16472,-1.79077 -0.71929,0.57335 -0.37128,1.33603 1.48648,3.25769 4.06129,4.20101 5.52466,2.92189 1.67824,-1.46692 z m -7.11559,-1.86943 c -1.66206,-0.50884 -1.98957,0.0175 -0.77172,1.24018 1.08569,1.09001 2.00411,1.11864 2.1384,0.0667 0.06,-0.47026 -0.55498,-1.05834 -1.36668,-1.30685 z m -24.27978,49.97782 c -0.14394,-0.0122 -0.98814,0.51944 -1.87601,1.18142 -1.60565,1.19715 -1.60465,1.20046 0.18558,0.6185 1.48599,-0.48306 2.64663,-1.71889 1.69043,-1.79992 z m -18.81786,-21.38709 c -4.75701,1.09762 -8.78439,2.23899 -8.94972,2.53638 -0.23951,0.43082 8.02369,1.34835 12.40056,1.37693 1.47892,0.01 7.3525,-5.35485 6.19033,-5.65379 -0.54563,-0.14036 -4.88416,0.64286 -9.64117,1.74048 z m 7.88095,-15.43784 c -1.0328,-0.96047 -2.22704,-1.7759 -2.65388,-1.81208 -0.42683,-0.0362 -1.03313,-0.72012 -1.34732,-1.51988 -0.36908,-0.93946 -1.35907,-1.59553 -2.79716,-1.85368 -2.30304,-0.41341 -8.11807,0.34301 -8.21062,1.06806 -0.0788,0.61763 2.86113,3.13456 4.32009,3.69846 1.73123,0.66914 1.41292,2.24247 -0.51947,2.5677 -1.01626,0.17103 -1.63647,0.80658 -1.7643,1.8079 -0.10841,0.84928 -0.61223,2.04386 -1.1196,2.65461 -0.74304,0.89445 -1.26942,0.96795 -2.70594,0.37785 -1.32603,-0.54471 -2.11291,-0.51476 -3.06795,0.11679 -0.70647,0.46717 -1.31332,1.07522 -1.34855,1.35123 -0.0352,0.276 -0.79113,0.59266 -1.67977,0.70368 -2.63458,0.32912 -2.16762,3.46498 0.64568,4.33599 3.65303,1.13101 14.71087,-1.47842 17.84628,-4.21135 0.8982,-0.78291 2.362,-1.92398 3.25289,-2.53571 1.4853,-1.01987 2.36824,-2.34339 2.84401,-4.26314 0.10088,-0.40706 -0.66159,-1.52595 -1.69439,-2.48643 z m -15.08003,20.23803 c -1.76676,-0.9744 -4.49193,-0.6238 -4.64789,0.59796 -0.0622,0.48699 0.18565,0.91076 0.55069,0.9417 0.36505,0.0309 1.70825,0.32049 2.98488,0.64344 1.82102,0.46066 2.34818,0.37546 2.44659,-0.39543 0.069,-0.54044 -0.53144,-1.34488 -1.33427,-1.78767 z m -4.13149,4.11638 c -1.30224,-2.39284 -4.01172,-3.37624 -6.01308,-2.18245 -0.78109,0.46591 -2.3058,0.77205 -3.38825,0.68032 -1.08243,-0.0917 -3.14418,0.483 -4.58163,1.2772 l -2.61356,1.44401 1.67266,0.96099 c 0.91996,0.52854 2.64531,0.88443 3.83411,0.79086 1.33318,-0.10494 2.81808,0.26576 3.87498,0.96744 2.32095,1.54081 3.96127,1.58377 6.25122,0.16372 2.30963,-1.43225 2.34187,-1.56949 0.96355,-4.10209 z"
       id="path4054"
       inkscape:connector-curvature="0"
       sodipodi:nodetypes="csssssccssssssssssscsssssscsssssscssssssssssscsssssssscsssscssssscssscscssssscccsscccscsssscccssscccscscssscssssscsssscssccssscscssssssssssssccccccsscssscsssccssssssscsssssscscsscsssscsssscccccsccscsssssscsccccsscssccsscsscsccssscsssssscccsccsscscsscss" />
  </g>
</svg>
